:SAMPLES-PER-SECOND 30
:FULLY-SPECIFIED
:DEGREES
121
root  16.66633276 39.62555532 -8.774844493 -1.962900043 -63.05020142 4.825049877
lowerback  7.365180016 2.892179966 1.961809993
upperback  2.464070082 3.943619967 -0.0298909992
thorax  -1.44137001 1.954970002 -1.457329988
lowerneck  -6.132430077 8.81153965 -4.381929874
upperneck  14.02099991 12.10980034 1.704579949
head  4.851429939 5.782289982 1.904600024
lclavicle  0 -9.442270133e-015 7.951389973e-016
lhumerus  12.16880035 -4.348350048 64.59290314
lradius  2.936296905e-031 -1.96137822e-031 146.2579956
lwrist  -3.531125038e-031 -3.531125038e-031 1.65376997
lhand  -1.496451383e-031 -27.76390076 20.11240005
lfingers  90 7.125020027 -90
lthumb  89.89689403 5.08795885 91.16245106
rclavicle  0 -9.442270133e-015 7.951389973e-016
rhumerus  9.372830391 21.56419945 -74.39369965
rradius  -2.774311101e-031 2.184500389e-031 141.7830048
rwrist  7.062250077e-031 -1.765562519e-031 -15.49520016
rhand  -7.920061211e-032 -33.2840004 9.303460121
rfingers  -90 -7.125020027 -90
rthumb  -92.93752616 -24.25625642 -97.11982154
rfemur  -9.109939575 13.10470009 5.409359932
rtibia  -0 0 49.77199936
rfoot  -0 -15.9677 -12.44939995
rtoes  5.373923086 19.29304026 -105.8922705
lfemur  -19.87109947 -3.552730083 -5.327950001
ltibia  -0 0 50.57730103
lfoot  4.488230749e-032 -10.44159985 2.000809908
ltoes  -4.250644065 -19.5611806 -102.515957
122
root  16.67128886 39.52666756 -8.934577431 -2.664340019 -63.04520035 5.385900021
lowerback  7.639400005 2.792659998 1.463279963
upperback  2.442310095 3.783269882 0.1474950016
thorax  -1.666720033 1.870470047 -1.001610041
lowerneck  -6.13214016 8.78608036 -4.346290112
upperneck  14.01990032 12.0855999 1.60284996
head  4.86082983 5.765510082 1.868170023
lclavicle  0 -9.442270133e-015 7.951389973e-016
lhumerus  11.57320023 -4.222640038 65.5565033
lradius  2.904706119e-031 -2.007866131e-031 145.345993
lwrist  -1.059337512e-030 -1.765562519e-031 3.650130033
lhand  -1.496451383e-031 -27.76390076 20.11240005
lfingers  90 7.125020027 -90
lthumb  89.89689403 5.08795885 91.16245106
rclavicle  0 -9.442270133e-015 7.951389973e-016
rhumerus  9.028169632 21.68330002 -73.97920227
rradius  -2.760607601e-031 2.201792385e-031 141.4250031
rwrist  1.412450015e-030 -0 -14.89459991
rhand  -7.920061211e-032 -33.2840004 9.303460121
rfingers  -90 -7.125020027 -90
rthumb  -92.93752616 -24.25625642 -97.11982154
rfemur  -8.192939758 13.16069984 5.582950115
rtibia  -0 0 49.55130005
rfoot  -0 -16.47430038 -13.12639999
rtoes  5.373923086 19.29304026 -105.8922705
lfemur  -19.74270058 -2.511879921 -6.294290066
ltibia  -0 0 52.05939865
lfoot  5.609287962e-032 -10.38599968 1.293140054
ltoes  -4.250644065 -19.5611806 -102.515957
123
root  16.65453273 39.40555542 -9.08968918 -3.445669889 -63.07569885 6.032889843
lowerback  7.782599926 2.64102006 0.8136280179
upperback  2.392819881 3.541529894 0.4131039977
thorax  -1.860280037 1.747380018 -0.3557989895
lowerneck  -5.952330112 8.817959785 -4.61424017
upperneck  14.02799988 12.15130043 1.566140056
head  4.818220139 5.78178978 1.890370011
lclavicle  0 -9.442270133e-015 7.951389973e-016
lhumerus  10.50419998 -4.679150105 66.14489746
lradius  2.890228637e-031 -2.028650404e-031 144.9349976
lwrist  -7.062250077e-031 -3.531125038e-031 3.262140036
lhand  -1.496451383e-031 -27.76390076 20.11240005
lfingers  90 7.125020027 -90
lthumb  89.89689403 5.08795885 91.16245106
rclavicle  0 -9.442270133e-015 7.951389973e-016
rhumerus  8.660730362 22.03450012 -73.57849884
rradius  -2.745324242e-031 2.220819408e-031 141.029007
rwrist  1.412450015e-030 -0 -14.59619999
rhand  -7.920061211e-032 -33.2840004 9.303460121
rfingers  -90 -7.125020027 -90
rthumb  -92.93752616 -24.25625642 -97.11982154
rfemur  -7.10213995 13.2531004 5.72397995
rtibia  -0 0 48.9396019
rfoot  -0 -19.30610085 -14.14529991
rtoes  5.373923086 19.29304026 -105.8922705
lfemur  -19.46430016 -1.457119942 -7.239349842
ltibia  -0 0 53.32839966
lfoot  5.05767268e-032 -10.9467001 0.5675619841
ltoes  -4.250644065 -19.5611806 -102.515957
124
root  16.61755569 39.28222356 -9.240755697 -4.202119827 -63.18909836 6.718900204
lowerback  7.856510162 2.472949982 0.1075040027
upperback  2.270770073 3.273380041 0.6620900035
thorax  -2.084350109 1.61390996 0.3108670115
lowerneck  -5.744070053 8.927680016 -4.862339973
upperneck  14.15680027 12.31849957 1.526839972
head  4.806350231 5.844550133 1.915930033
lclavicle  0 -9.442270133e-015 7.951389973e-016
lhumerus  9.216190338 -5.155399799 66.44879913
lradius  2.888492798e-031 -2.031121215e-031 144.8860016
lwrist  -3.531125038e-031 -0 2.10007
lhand  -1.496451383e-031 -27.76390076 20.11240005
lfingers  90 7.125020027 -90
lthumb  89.89689403 5.08795885 91.16245106
rclavicle  0 -9.442270133e-015 7.951389973e-016
rhumerus  8.176019669 22.29820061 -73.40630341
rradius  -2.731589258e-031 2.237691704e-031 140.6759949
rwrist  7.062250077e-031 -0 -14.20129967
rhand  -7.920061211e-032 -33.2840004 9.303460121
rfingers  -90 -7.125020027 -90
rthumb  -92.93752616 -24.25625642 -97.11982154
rfemur  -6.104199886 13.47220039 5.794579983
rtibia  -0 0 47.98970032
rfoot  -0 -21.36969948 -15.32670021
rtoes  5.373923086 19.29304026 -105.8922705
lfemur  -19.13479996 -0.2928549945 -8.13973999
ltibia  -0 0 54.37820053
lfoot  4.510540693e-032 -11.88140011 2.209079981
ltoes  -4.250644065 -19.5611806 -102.515957
125
root  16.57006722 39.17622303 -9.375599989 -4.898240089 -63.35800171 7.397200108
lowerback  7.864230156 2.36958003 -0.3108069897
upperback  2.180190086 3.1066401 0.6975049973
thorax  -2.205250025 1.532600045 0.5938850045
lowerneck  -5.717339993 8.962349892 -4.909639835
upperneck  14.30809975 12.36320019 1.577029943
head  4.840960026 5.862249851 1.94362998
lclavicle  0 -9.442270133e-015 7.951389973e-016
lhumerus  8.274809837 -5.372610092 66.65100098
lradius  2.88188377e-031 -2.04048768e-031 144.6999969
lwrist  -1.059337512e-030 -0 1.585890055
lhand  -1.496451383e-031 -27.76390076 20.11240005
lfingers  90 7.125020027 -90
lthumb  89.89689403 5.08795885 91.16245106
rclavicle  0 -9.442270133e-015 7.951389973e-016
rhumerus  7.672170162 22.25079918 -73.52940369
rradius  -2.713378746e-031 2.259738882e-031 140.2120056
rwrist  7.062250077e-031 1.765562519e-031 -13.54380035
rhand  -7.920061211e-032 -33.2840004 9.303460121
rfingers  -90 -7.125020027 -90
rthumb  -92.93752616 -24.25625642 -97.11982154
rfemur  -5.23499012 13.74870014 5.764319897
rtibia  -0 0 46.84939957
rfoot  -0 -22.22629929 -16.28829956
rtoes  5.373923086 19.29304026 -105.8922705
lfemur  -18.81699944 0.9397919774 -8.971289635
ltibia  -0 0 55.17179871
lfoot  4.528821481e-032 -12.93470001 4.831389904
ltoes  -4.250644065 -19.5611806 -102.515957
126
root  16.51446725 39.09533343 -9.488733547 -5.742280006 -63.51290131 8.250209808
lowerback  7.855529785 2.264800072 -0.6243640184
upperback  2.116430044 2.942070007 0.6055870056
thorax  -2.274760008 1.452469945 0.6893140078
lowerneck  -5.647610188 8.990810394 -4.929450035
upperneck  14.30350018 12.39389992 1.60897994
head  4.823540211 5.87842989 1.953259945
lclavicle  0 -9.442270133e-015 7.951389973e-016
lhumerus  7.473509789 -5.541570187 66.73320007
lradius  2.875673933e-031 -2.049229969e-031 144.526001
lwrist  -7.062250077e-031 -3.531125038e-031 1.359369993
lhand  -1.496451383e-031 -27.76390076 20.11240005
lfingers  90 7.125020027 -90
lthumb  89.89689403 5.08795885 91.16245106
rclavicle  0 -9.442270133e-015 7.951389973e-016
rhumerus  7.18380022 22.32239914 -73.76519775
rradius  -2.693913868e-031 2.282908694e-031 139.720993
rwrist  7.062250077e-031 -1.765562519e-031 -13.21210003
rhand  -7.920061211e-032 -33.2840004 9.303460121
rfingers  -90 -7.125020027 -90
rthumb  -92.93752616 -24.25625642 -97.11982154
rfemur  -4.383850098 13.76309967 5.517139912
rtibia  -0 0 45.7201004
rfoot  -0 -22.60490036 -16.38479996
rtoes  5.373923086 19.29304026 -105.8922705
lfemur  -18.46509933 1.986850023 -9.813019753
ltibia  -0 0 55.72489929
lfoot  -0 -14.05249977 7.52944994
ltoes  -4.250644065 -19.5611806 -102.515957
127
root  16.46222242 39.02488769 -9.59515534 -6.541769981 -63.60660172 9.10229969
lowerback  7.886370182 2.110980034 -0.98398
upperback  2.016410112 2.709209919 0.5445330143
thorax  -2.40444994 1.339339972 0.8470349908
lowerneck  -5.344299793 9.073719978 -4.928989887
upperneck  14.05889988 12.50590038 1.422410011
head  4.707300186 5.929120064 1.877380013
lclavicle  0 -9.442270133e-015 7.951389973e-016
lhumerus  6.555930138 -5.828730106 66.75189972
lradius  2.873884439e-031 -2.051738841e-031 144.4759979
lwrist  -7.062250077e-031 -3.531125038e-031 1.127470016
lhand  -1.496451383e-031 -27.76390076 20.11240005
lfingers  90 7.125020027 -90
lthumb  89.89689403 5.08795885 91.16245106
rclavicle  0 -9.442270133e-015 7.951389973e-016
rhumerus  6.588550091 22.51189995 -74.10050201
rradius  -2.683006044e-031 2.29571832e-031 139.447998
rwrist  1.412450015e-030 1.765562519e-031 -13.28079987
rhand  -7.920061211e-032 -33.2840004 9.303460121
rfingers  -90 -7.125020027 -90
rthumb  -92.93752616 -24.25625642 -97.11982154
rfemur  -3.682810068 13.58259964 5.186709881
rtibia  -0 0 44.75310135
rfoot  -0 -23.58950043 -15.93570042
rtoes  5.373923086 19.29304026 -105.8922705
lfemur  -18.23559952 2.798979998 -10.52449989
ltibia  -0 0 56.11349869
lfoot  -0 -15.2816 9.007439613
ltoes  -4.250644065 -19.5611806 -102.515957
128
root  16.43435561 38.95199993 -9.706333491 -6.69178009 -63.81090164 9.222840309
lowerback  8.099229813 1.948150039 -1.05163002
upperback  1.905410051 2.487580061 0.5936059952
thorax  -2.6370399 1.231070042 0.9480720162
lowerneck  -5.09059 9.190360069 -4.904630184
upperneck  13.78079987 12.6722002 1.164770007
head  4.594369888 6.004630089 1.780830026
lclavicle  0 -9.442270133e-015 7.951389973e-016
lhumerus  5.577089787 -6.031340122 66.75330353
lradius  2.876782462e-031 -2.047673486e-031 144.5570068
lwrist  -7.062250077e-031 -3.531125038e-031 1.12361002
lhand  -1.496451383e-031 -27.76390076 20.11240005
lfingers  90 7.125020027 -90
lthumb  89.89689403 5.08795885 91.16245106
rclavicle  0 -9.442270133e-015 7.951389973e-016
rhumerus  6.056799889 22.62360001 -74.55879974
rradius  -2.672399999e-031 2.308055953e-031 139.1840057
rwrist  7.062250077e-031 -0 -12.87660027
rhand  -7.920061211e-032 -33.2840004 9.303460121
rfingers  -90 -7.125020027 -90
rthumb  -92.93752616 -24.25625642 -97.11982154
rfemur  -3.241339922 13.57190037 5.213230133
rtibia  -0 0 44.00379944
rfoot  -0 -25.00300026 -15.52639961
rtoes  5.373923086 19.29304026 -105.8922705
lfemur  -18.13999939 3.618220091 -10.69859982
ltibia  -0 0 56.42419815
lfoot  -0 -16.32369995 9.470549583
ltoes  -4.250644065 -19.5611806 -102.515957
129
root  16.42973292 38.89711035 -9.81186694 -6.183080196 -64.14450073 8.60340023
lowerback  8.450630188 1.831840038 -0.7442079782
upperback  1.847120047 2.359679937 0.7241150141
thorax  -2.88222003 1.166110039 0.9113870263
lowerneck  -5.132239819 9.275099754 -4.828750134
upperneck  13.63329983 12.82649994 0.800680995
head  4.582379818 6.065070152 1.666429996
lclavicle  0 -9.442270133e-015 7.951389973e-016
lhumerus  4.692979813 -6.250720024 66.78859711
lradius  2.883805635e-031 -2.037770619e-031 144.7539978
lwrist  -1.059337512e-030 -0 0.5070220232
lhand  -1.496451383e-031 -27.76390076 20.11240005
lfingers  90 7.125020027 -90
lthumb  89.89689403 5.08795885 91.16245106
rclavicle  0 -9.442270133e-015 7.951389973e-016
rhumerus  5.751200199 22.63809967 -74.96060181
rradius  -2.657683157e-031 2.324986941e-031 138.8200073
rwrist  0 -0 -12.3125
rhand  -7.920061211e-032 -33.2840004 9.303460121
rfingers  -90 -7.125020027 -90
rthumb  -92.93752616 -24.25625642 -97.11982154
rfemur  -3.033829927 13.65859985 5.558589935
rtibia  -0 0 43.49039841
rfoot  -0 -25.83239937 -15.23849964
rtoes  5.373923086 19.29304026 -105.8922705
lfemur  -18.18540001 4.428150177 -10.36660004
ltibia  -0 0 56.78490067
lfoot  -0 -16.96389961 9.746729851
ltoes  -4.250644065 -19.5611806 -102.515957
